<?xml version="1.0" encoding="utf-8"?>
<!-- Generator: Adobe Illustrator 25.0.1, SVG Export Plug-In . SVG Version: 6.00 Build 0)  -->
<svg version="1.1" id="Capa_1" xmlns="http://www.w3.org/2000/svg" xmlns:xlink="http://www.w3.org/1999/xlink" x="0px" y="0px"
	 viewBox="0 0 2765.83 732.51" style="enable-background:new 0 0 2765.83 732.51;" xml:space="preserve">
<style type="text/css">
	.st0{fill:#2F3866;}
	.st1{fill:#57ABFF;}
	.st2{fill:none;stroke:#2F3866;stroke-width:23;stroke-linejoin:round;stroke-miterlimit:10;}
	.st3{fill:#FFFFFF;}
	.st4{fill:none;stroke:#FFFFFF;stroke-width:23;stroke-linejoin:round;stroke-miterlimit:10;}
	.st5{fill:none;stroke:#57ABFF;stroke-width:20;stroke-miterlimit:10;}
</style>
<polygon class="st0" points="6.67,679.87 43.55,720.81 44.91,676.68 "/>
<rect x="43.55" y="48.76" class="st0" width="1019.67" height="672.05"/>
<rect x="6.67" y="7.82" class="st1" width="1019.67" height="672.05"/>
<g>
	<path class="st0" d="M207.55,156.72h55.68c12.59,0,23.7,2.29,33.33,6.86c9.63,4.57,17.11,11.11,22.44,19.61
		c5.33,8.5,7.99,18.51,7.99,30.02c0,11.52-2.66,21.52-7.99,30.02c-5.33,8.5-12.81,15.04-22.44,19.61
		c-9.63,4.58-20.74,6.86-33.33,6.86h-55.68V156.72z M261.62,240.01c8.18,0,14.71-2.34,19.61-7.02c4.9-4.68,7.34-11.27,7.34-19.77
		c0-8.5-2.45-15.09-7.34-19.77c-4.9-4.68-11.43-7.02-19.61-7.02h-15.98v53.59H261.62z"/>
	<path class="st0" d="M434.8,240.97v28.73h-93.94V156.72h91.84v28.73h-54.39v13.24h47.78v27.44h-47.78v14.85H434.8z"/>
	<path class="st0" d="M464.26,269.14c-8.88-2.1-16.17-4.92-21.87-8.47l12.27-27.76c5.38,3.12,11.4,5.62,18.08,7.51
		c6.67,1.88,13.07,2.82,19.21,2.82c5.27,0,9.04-0.51,11.3-1.53c2.26-1.02,3.39-2.55,3.39-4.6c0-2.37-1.48-4.14-4.44-5.33
		c-2.96-1.18-7.83-2.47-14.61-3.87c-8.72-1.83-15.98-3.79-21.79-5.89s-10.87-5.54-15.17-10.33c-4.31-4.79-6.46-11.27-6.46-19.45
		c0-7.1,1.99-13.56,5.97-19.37c3.98-5.81,9.93-10.38,17.83-13.72c7.91-3.33,17.51-5,28.81-5c7.75,0,15.36,0.83,22.84,2.5
		c7.48,1.67,14.07,4.12,19.77,7.34l-11.46,27.6c-11.08-5.59-21.58-8.39-31.47-8.39c-9.79,0-14.69,2.37-14.69,7.1
		c0,2.26,1.45,3.95,4.36,5.08s7.69,2.34,14.36,3.63c8.61,1.61,15.87,3.47,21.79,5.57c5.92,2.1,11.06,5.52,15.41,10.25
		c4.36,4.74,6.54,11.19,6.54,19.37c0,7.1-1.99,13.53-5.97,19.29c-3.98,5.76-9.93,10.33-17.83,13.72
		c-7.91,3.39-17.51,5.08-28.81,5.08C482.25,272.29,473.13,271.24,464.26,269.14z"/>
	<path class="st0" d="M555.53,156.72h38.09V269.7h-38.09V156.72z"/>
	<path class="st0" d="M686.75,210.15h33.09v47.78c-6.67,4.63-14.42,8.18-23.24,10.65c-8.82,2.47-17.49,3.71-25.99,3.71
		c-12.05,0-22.87-2.5-32.44-7.51c-9.58-5-17.08-12-22.52-20.98c-5.44-8.98-8.15-19.18-8.15-30.59c0-11.4,2.72-21.6,8.15-30.59
		c5.43-8.98,13.02-15.98,22.76-20.98c9.74-5,20.74-7.51,33.01-7.51c11.08,0,21.01,1.86,29.78,5.57c8.77,3.71,16.06,9.12,21.87,16.22
		l-24.37,21.47c-7.1-8.28-15.55-12.43-25.34-12.43c-8.39,0-15.07,2.53-20.01,7.59c-4.95,5.06-7.42,11.94-7.42,20.66
		c0,8.5,2.45,15.33,7.34,20.5c4.9,5.17,11.43,7.75,19.61,7.75c4.84,0,9.47-0.91,13.88-2.74V210.15z"/>
	<path class="st0" d="M847.51,156.72V269.7H816.2l-42.93-51.33v51.33h-37.12V156.72h31.31l42.93,51.33v-51.33H847.51z"/>
</g>
<polyline class="st2" points="161.24,148.83 103.41,206.66 164.39,267.64 "/>
<polyline class="st2" points="883.78,267.64 941.61,209.81 880.62,148.83 "/>
<g>
	<path class="st0" d="M155.31,530.24c-16.78-8.76-29.92-21.01-39.44-36.75c-9.52-15.73-14.28-33.59-14.28-53.57
		c0-19.98,4.76-37.83,14.28-53.57c9.52-15.73,22.66-27.99,39.44-36.75c16.77-8.76,35.62-13.15,56.54-13.15
		c19.22,0,36.37,3.39,51.45,10.18c15.08,6.79,27.52,16.59,37.32,29.4l-42.12,37.6c-12.25-15.45-26.67-23.18-43.26-23.18
		c-13.95,0-25.16,4.48-33.64,13.43c-8.48,8.95-12.72,20.97-12.72,36.05c0,15.08,4.24,27.1,12.72,36.05
		c8.48,8.95,19.69,13.43,33.64,13.43c16.58,0,31-7.73,43.26-23.18l42.12,37.6c-9.8,12.82-22.24,22.62-37.32,29.4
		c-15.08,6.79-32.23,10.18-51.45,10.18C190.93,543.39,172.08,539,155.31,530.24z"/>
	<path class="st0" d="M361.97,530.1c-16.96-8.86-30.25-21.15-39.86-36.89c-9.61-15.73-14.42-33.5-14.42-53.29
		c0-19.79,4.81-37.55,14.42-53.29c9.61-15.73,22.9-28.03,39.86-36.89c16.96-8.86,36.09-13.29,57.39-13.29
		c21.3,0,40.43,4.43,57.39,13.29c16.96,8.86,30.25,21.16,39.86,36.89c9.61,15.74,14.42,33.5,14.42,53.29
		c0,19.79-4.81,37.56-14.42,53.29c-9.61,15.74-22.9,28.04-39.86,36.89c-16.96,8.86-36.09,13.29-57.39,13.29
		C398.06,543.39,378.93,538.95,361.97,530.1z M441.83,483.31c6.69-4.05,12.02-9.8,15.97-17.25c3.96-7.44,5.94-16.16,5.94-26.15
		c0-9.99-1.98-18.7-5.94-26.15c-3.96-7.44-9.29-13.19-15.97-17.25c-6.69-4.05-14.18-6.08-22.48-6.08c-8.3,0-15.79,2.03-22.48,6.08
		c-6.69,4.05-12.02,9.8-15.97,17.25c-3.96,7.45-5.94,16.16-5.94,26.15c0,9.99,1.98,18.71,5.94,26.15
		c3.96,7.45,9.28,13.19,15.97,17.25c6.69,4.06,14.18,6.08,22.48,6.08C427.65,489.39,435.14,487.36,441.83,483.31z"/>
	<path class="st0" d="M555.34,340.96h97.54c22.05,0,41.51,4.01,58.38,12.02c16.87,8.01,29.97,19.46,39.3,34.35
		c9.33,14.89,13.99,32.42,13.99,52.58c0,20.17-4.67,37.7-13.99,52.58c-9.33,14.89-22.43,26.34-39.3,34.35
		c-16.87,8.01-36.33,12.02-58.38,12.02h-97.54V340.96z M650.05,486.84c14.32,0,25.77-4.1,34.35-12.3
		c8.57-8.2,12.86-19.74,12.86-34.63c0-14.89-4.29-26.43-12.86-34.63c-8.58-8.2-20.03-12.3-34.35-12.3h-27.99v93.86H650.05z"/>
	<path class="st0" d="M953.4,488.54v50.32H788.86v-197.9h160.86v50.32h-95.27v23.18h83.68v48.06h-83.68v26.01H953.4z"/>
</g>
<polygon class="st0" points="1026.34,7.82 1063.22,48.76 1026.34,48.76 "/>
<g>
	<path class="st3" d="M197.87,148.81h55.68c12.59,0,23.7,2.29,33.33,6.86c9.63,4.57,17.11,11.11,22.44,19.61
		c5.33,8.5,7.99,18.51,7.99,30.02c0,11.52-2.66,21.52-7.99,30.02c-5.33,8.5-12.81,15.04-22.44,19.61
		c-9.63,4.58-20.74,6.86-33.33,6.86h-55.68V148.81z M251.94,232.09c8.18,0,14.71-2.34,19.61-7.02c4.9-4.68,7.34-11.27,7.34-19.77
		c0-8.5-2.45-15.09-7.34-19.77c-4.9-4.68-11.43-7.02-19.61-7.02h-15.98v53.59H251.94z"/>
	<path class="st3" d="M425.13,233.06v28.73h-93.94V148.81h91.84v28.73h-54.39v13.24h47.78v27.44h-47.78v14.85H425.13z"/>
	<path class="st3" d="M454.58,261.23c-8.88-2.1-16.17-4.92-21.87-8.47l12.27-27.76c5.38,3.12,11.4,5.62,18.08,7.51
		c6.67,1.88,13.07,2.82,19.21,2.82c5.27,0,9.04-0.51,11.3-1.53c2.26-1.02,3.39-2.55,3.39-4.6c0-2.37-1.48-4.14-4.44-5.33
		c-2.96-1.18-7.83-2.47-14.61-3.87c-8.72-1.83-15.98-3.79-21.79-5.89s-10.87-5.54-15.17-10.33c-4.31-4.79-6.46-11.27-6.46-19.45
		c0-7.1,1.99-13.56,5.97-19.37c3.98-5.81,9.93-10.38,17.83-13.72c7.91-3.33,17.51-5,28.81-5c7.75,0,15.36,0.83,22.84,2.5
		c7.48,1.67,14.07,4.12,19.77,7.34l-11.46,27.6c-11.08-5.59-21.58-8.39-31.47-8.39c-9.79,0-14.69,2.37-14.69,7.1
		c0,2.26,1.45,3.95,4.36,5.08s7.69,2.34,14.36,3.63c8.61,1.61,15.87,3.47,21.79,5.57c5.92,2.1,11.06,5.52,15.41,10.25
		c4.36,4.74,6.54,11.19,6.54,19.37c0,7.1-1.99,13.53-5.97,19.29c-3.98,5.76-9.93,10.33-17.83,13.72
		c-7.91,3.39-17.51,5.08-28.81,5.08C472.58,264.37,463.46,263.33,454.58,261.23z"/>
	<path class="st3" d="M545.86,148.81h38.09v112.98h-38.09V148.81z"/>
	<path class="st3" d="M677.07,202.23h33.09v47.78c-6.67,4.63-14.42,8.18-23.24,10.65c-8.82,2.47-17.49,3.71-25.99,3.71
		c-12.05,0-22.87-2.5-32.44-7.51c-9.58-5-17.08-12-22.52-20.98c-5.44-8.98-8.15-19.18-8.15-30.59c0-11.4,2.72-21.6,8.15-30.59
		c5.43-8.98,13.02-15.98,22.76-20.98c9.74-5,20.74-7.51,33.01-7.51c11.08,0,21.01,1.86,29.78,5.57c8.77,3.71,16.06,9.12,21.87,16.22
		l-24.37,21.47c-7.1-8.28-15.55-12.43-25.34-12.43c-8.39,0-15.07,2.53-20.01,7.59c-4.95,5.06-7.42,11.94-7.42,20.66
		c0,8.5,2.45,15.33,7.34,20.5c4.9,5.17,11.43,7.75,19.61,7.75c4.84,0,9.47-0.91,13.88-2.74V202.23z"/>
	<path class="st3" d="M837.83,148.81v112.98h-31.31l-42.93-51.33v51.33h-37.12V148.81h31.31l42.93,51.33v-51.33H837.83z"/>
</g>
<polyline class="st4" points="156.33,148.83 98.5,206.66 159.48,267.64 "/>
<polyline class="st4" points="879.3,267.64 937.13,209.81 876.15,148.83 "/>
<g>
	<path class="st3" d="M145.63,522.33c-16.78-8.76-29.92-21.01-39.44-36.75c-9.52-15.73-14.28-33.59-14.28-53.57
		c0-19.98,4.76-37.83,14.28-53.57c9.52-15.73,22.66-27.99,39.44-36.75c16.77-8.76,35.62-13.15,56.54-13.15
		c19.22,0,36.37,3.39,51.45,10.18c15.08,6.79,27.52,16.59,37.32,29.4l-42.12,37.6c-12.25-15.45-26.67-23.18-43.26-23.18
		c-13.95,0-25.16,4.48-33.64,13.43c-8.48,8.95-12.72,20.97-12.72,36.05c0,15.08,4.24,27.1,12.72,36.05
		c8.48,8.95,19.69,13.43,33.64,13.43c16.58,0,31-7.73,43.26-23.18l42.12,37.6c-9.8,12.82-22.24,22.62-37.32,29.4
		c-15.08,6.79-32.23,10.18-51.45,10.18C181.26,535.47,162.41,531.09,145.63,522.33z"/>
	<path class="st3" d="M352.29,522.19c-16.96-8.86-30.25-21.15-39.86-36.89c-9.61-15.73-14.42-33.5-14.42-53.29
		c0-19.79,4.81-37.55,14.42-53.29c9.61-15.73,22.9-28.03,39.86-36.89c16.96-8.86,36.09-13.29,57.39-13.29
		c21.3,0,40.43,4.43,57.39,13.29c16.96,8.86,30.25,21.16,39.86,36.89c9.61,15.74,14.42,33.5,14.42,53.29
		c0,19.79-4.81,37.56-14.42,53.29c-9.61,15.74-22.9,28.04-39.86,36.89c-16.96,8.86-36.09,13.29-57.39,13.29
		C388.38,535.47,369.26,531.04,352.29,522.19z M432.16,475.4c6.69-4.05,12.02-9.8,15.97-17.25c3.96-7.44,5.94-16.16,5.94-26.15
		c0-9.99-1.98-18.7-5.94-26.15c-3.96-7.44-9.29-13.19-15.97-17.25c-6.69-4.05-14.18-6.08-22.48-6.08c-8.3,0-15.79,2.03-22.48,6.08
		c-6.69,4.05-12.02,9.8-15.97,17.25c-3.96,7.45-5.94,16.16-5.94,26.15c0,9.99,1.98,18.71,5.94,26.15
		c3.96,7.45,9.28,13.19,15.97,17.25c6.69,4.06,14.18,6.08,22.48,6.08C417.98,481.48,425.47,479.45,432.16,475.4z"/>
	<path class="st3" d="M545.67,333.05h97.54c22.05,0,41.51,4.01,58.38,12.02c16.87,8.01,29.97,19.46,39.3,34.35
		c9.33,14.89,13.99,32.42,13.99,52.58c0,20.17-4.66,37.7-13.99,52.58c-9.33,14.89-22.43,26.34-39.3,34.35
		c-16.87,8.01-36.33,12.02-58.38,12.02h-97.54V333.05z M640.38,478.93c14.32,0,25.77-4.1,34.35-12.3
		c8.57-8.2,12.86-19.74,12.86-34.63c0-14.89-4.29-26.43-12.86-34.63c-8.58-8.2-20.03-12.3-34.35-12.3h-27.99v93.86H640.38z"/>
	<path class="st3" d="M943.72,480.63v50.32H779.18v-197.9h160.86v50.32h-95.27v23.18h83.68v48.06h-83.68v26.01H943.72z"/>
</g>
<g>
	<path class="st3" d="M1153.07,197.53h50.04c11.31,0,21.3,2.06,29.95,6.16c8.65,4.11,15.38,9.99,20.16,17.62
		c4.79,7.64,7.18,16.63,7.18,26.98c0,10.35-2.39,19.34-7.18,26.98c-4.79,7.64-11.51,13.51-20.16,17.62
		c-8.66,4.11-18.64,6.16-29.95,6.16h-50.04V197.53z M1201.66,272.37c7.35,0,13.22-2.1,17.62-6.31c4.4-4.21,6.6-10.13,6.6-17.77
		c0-7.64-2.2-13.56-6.6-17.77c-4.4-4.21-10.28-6.31-17.62-6.31h-14.36v48.15H1201.66z"/>
	<path class="st3" d="M1355.84,267h-55.12c1.16,3,3.09,5.29,5.8,6.89c2.71,1.6,6.09,2.39,10.15,2.39c3.48,0,6.4-0.44,8.78-1.31
		c2.37-0.87,4.95-2.37,7.76-4.5l17.12,17.26c-7.74,8.51-19.29,12.76-34.67,12.76c-9.57,0-17.99-1.76-25.24-5.29
		c-7.25-3.53-12.86-8.44-16.83-14.72c-3.97-6.28-5.95-13.34-5.95-21.18c0-7.93,1.96-15.01,5.87-21.25
		c3.92-6.24,9.28-11.1,16.1-14.58c6.82-3.48,14.48-5.22,22.99-5.22c8.03,0,15.35,1.6,21.97,4.79c6.62,3.19,11.89,7.88,15.81,14.07
		c3.92,6.19,5.88,13.59,5.88,22.19C1356.28,259.8,1356.13,262.36,1355.84,267z M1304.49,243.36c-2.23,1.84-3.68,4.45-4.35,7.83
		h25.53c-0.68-3.29-2.13-5.87-4.35-7.76c-2.23-1.89-5.03-2.83-8.41-2.83C1309.52,240.6,1306.72,241.52,1304.49,243.36z"/>
	<path class="st3" d="M1377.6,298.33c-6.58-1.45-11.89-3.34-15.96-5.66l8.99-21.61c3.67,2.23,8.03,3.97,13.05,5.22
		c5.03,1.26,9.91,1.89,14.65,1.89c3.77,0,6.4-0.31,7.9-0.94c1.5-0.63,2.25-1.57,2.25-2.83c0-1.26-0.94-2.13-2.83-2.61
		c-1.89-0.48-4.96-0.97-9.21-1.45c-6.48-0.77-11.99-1.76-16.54-2.97c-4.55-1.21-8.54-3.55-11.97-7.03
		c-3.43-3.48-5.15-8.46-5.15-14.94c0-5.12,1.54-9.72,4.64-13.78c3.09-4.06,7.71-7.3,13.85-9.72c6.14-2.42,13.51-3.63,22.12-3.63
		c5.99,0,11.87,0.56,17.62,1.67c5.75,1.11,10.66,2.73,14.72,4.86l-8.99,21.61c-6.96-3.87-14.6-5.8-22.92-5.8
		c-7.16,0-10.73,1.26-10.73,3.77c0,1.26,0.96,2.15,2.9,2.68c1.93,0.53,4.98,1.04,9.14,1.52c6.48,0.77,11.97,1.79,16.46,3.05
		c4.5,1.26,8.46,3.63,11.89,7.11c3.43,3.48,5.15,8.46,5.15,14.94c0,4.93-1.55,9.43-4.64,13.49c-3.1,4.06-7.74,7.3-13.92,9.72
		c-6.19,2.42-13.68,3.63-22.48,3.63C1390.84,300.51,1384.17,299.78,1377.6,298.33z"/>
	<path class="st3" d="M1515.97,227.62c7.35,6.24,11.02,15.83,11.02,28.79v42.64h-30.46v-10.44c-3.77,7.93-11.27,11.89-22.48,11.89
		c-6.29,0-11.63-1.09-16.03-3.26c-4.4-2.18-7.74-5.12-10.01-8.85c-2.27-3.72-3.41-7.91-3.41-12.55c0-7.83,3-13.78,8.99-17.84
		c5.99-4.06,15.08-6.09,27.27-6.09h13.2c-1.07-6.19-6.04-9.28-14.94-9.28c-3.58,0-7.2,0.56-10.88,1.67
		c-3.68,1.11-6.82,2.64-9.43,4.57l-10.44-21.61c4.54-2.8,10.03-5,16.46-6.6c6.43-1.6,12.84-2.39,19.22-2.39
		C1497.98,218.27,1508.62,221.39,1515.97,227.62z M1490.15,278.9c1.84-1.26,3.19-3.14,4.06-5.66v-5.51h-8.12
		c-6.67,0-10.01,2.23-10.01,6.67c0,1.84,0.7,3.36,2.1,4.57c1.4,1.21,3.31,1.81,5.73,1.81
		C1486.23,280.78,1488.31,280.15,1490.15,278.9z"/>
	<path class="st3" d="M1598.06,218.27v29.01c-2.61-0.39-5.03-0.58-7.25-0.58c-11.22,0-16.83,5.71-16.83,17.12v35.25h-32.78v-79.34
		h31.18v8.56C1578.19,221.6,1586.75,218.27,1598.06,218.27z"/>
	<path class="st3" d="M1664.2,218.27v29.01c-2.61-0.39-5.03-0.58-7.25-0.58c-11.22,0-16.83,5.71-16.83,17.12v35.25h-32.78v-79.34
		h31.18v8.56C1644.33,221.6,1652.89,218.27,1664.2,218.27z"/>
	<path class="st3" d="M1690.96,295.21c-7.01-3.53-12.5-8.41-16.46-14.65c-3.97-6.24-5.95-13.32-5.95-21.25
		c0-7.93,1.98-15.01,5.95-21.25c3.96-6.24,9.45-11.1,16.46-14.58c7.01-3.48,14.92-5.22,23.71-5.22c8.9,0,16.85,1.74,23.86,5.22
		c7.01,3.48,12.47,8.34,16.39,14.58c3.92,6.24,5.88,13.32,5.88,21.25c0,7.93-1.96,15.01-5.88,21.25
		c-3.92,6.24-9.38,11.12-16.39,14.65c-7.01,3.53-14.96,5.29-23.86,5.29C1705.88,300.51,1697.97,298.74,1690.96,295.21z
		 M1723.96,270.85c2.42-2.76,3.63-6.6,3.63-11.53c0-4.93-1.21-8.75-3.63-11.46c-2.42-2.71-5.51-4.06-9.28-4.06
		c-3.77,0-6.87,1.36-9.28,4.06c-2.42,2.71-3.63,6.53-3.63,11.46c0,4.93,1.21,8.77,3.63,11.53c2.42,2.76,5.51,4.13,9.28,4.13
		C1718.45,274.98,1721.54,273.6,1723.96,270.85z"/>
	<path class="st3" d="M1771.1,191.43h32.78v107.62h-32.78V191.43z"/>
	<path class="st3" d="M1818.38,191.43h32.78v107.62h-32.78V191.43z"/>
	<path class="st3" d="M1883.87,295.21c-7.01-3.53-12.5-8.41-16.46-14.65c-3.97-6.24-5.95-13.32-5.95-21.25
		c0-7.93,1.98-15.01,5.95-21.25c3.96-6.24,9.45-11.1,16.46-14.58c7.01-3.48,14.92-5.22,23.71-5.22c8.9,0,16.85,1.74,23.86,5.22
		c7.01,3.48,12.47,8.34,16.39,14.58c3.92,6.24,5.88,13.32,5.88,21.25c0,7.93-1.96,15.01-5.88,21.25
		c-3.92,6.24-9.38,11.12-16.39,14.65c-7.01,3.53-14.96,5.29-23.86,5.29C1898.78,300.51,1890.88,298.74,1883.87,295.21z
		 M1916.87,270.85c2.42-2.76,3.63-6.6,3.63-11.53c0-4.93-1.21-8.75-3.63-11.46c-2.42-2.71-5.51-4.06-9.28-4.06
		c-3.77,0-6.87,1.36-9.28,4.06c-2.42,2.71-3.63,6.53-3.63,11.46c0,4.93,1.21,8.77,3.63,11.53c2.42,2.76,5.51,4.13,9.28,4.13
		C1911.36,274.98,1914.45,273.6,1916.87,270.85z"/>
	<path class="st3" d="M2173.74,197.53l-32.49,101.53h-36.7l-16.39-54.25l-17.26,54.25h-36.7l-32.49-101.53h35.25l17.7,57.73
		l18.71-57.73h31.47l17.7,58.45l18.71-58.45H2173.74z"/>
	<path class="st3" d="M2258.45,267h-55.12c1.16,3,3.09,5.29,5.8,6.89c2.71,1.6,6.09,2.39,10.15,2.39c3.48,0,6.4-0.44,8.78-1.31
		c2.37-0.87,4.95-2.37,7.76-4.5l17.12,17.26c-7.74,8.51-19.29,12.76-34.67,12.76c-9.57,0-17.99-1.76-25.24-5.29
		c-7.25-3.53-12.86-8.44-16.83-14.72c-3.97-6.28-5.95-13.34-5.95-21.18c0-7.93,1.96-15.01,5.87-21.25
		c3.92-6.24,9.28-11.1,16.1-14.58c6.82-3.48,14.48-5.22,22.99-5.22c8.03,0,15.35,1.6,21.97,4.79c6.62,3.19,11.89,7.88,15.81,14.07
		c3.92,6.19,5.88,13.59,5.88,22.19C2258.88,259.8,2258.74,262.36,2258.45,267z M2207.1,243.36c-2.23,1.84-3.68,4.45-4.35,7.83h25.53
		c-0.68-3.29-2.13-5.87-4.35-7.76c-2.23-1.89-5.03-2.83-8.41-2.83C2212.13,240.6,2209.32,241.52,2207.1,243.36z"/>
	<path class="st3" d="M2341.34,223.27c5.85,3.34,10.49,8.12,13.92,14.36c3.43,6.24,5.15,13.47,5.15,21.68
		c0,8.22-1.72,15.47-5.15,21.76c-3.43,6.29-8.08,11.1-13.92,14.43c-5.85,3.34-12.26,5-19.22,5c-9.77,0-17.02-2.66-21.76-7.98v6.53
		h-31.18V191.43h32.78v33.65c4.64-4.54,11.36-6.82,20.16-6.82C2329.08,218.27,2335.49,219.93,2341.34,223.27z M2323.57,270.85
		c2.42-2.76,3.63-6.6,3.63-11.53c0-4.93-1.21-8.75-3.63-11.46c-2.42-2.71-5.51-4.06-9.28-4.06s-6.87,1.36-9.28,4.06
		c-2.42,2.71-3.63,6.53-3.63,11.46c0,4.93,1.21,8.77,3.63,11.53c2.42,2.76,5.51,4.13,9.28,4.13S2321.15,273.6,2323.57,270.85z"/>
	<path class="st3" d="M1253.15,371.58v101.53h-28.14l-38.58-46.12v46.12h-33.36V371.58h28.14l38.58,46.12v-46.12H1253.15z"/>
	<path class="st3" d="M1352.65,441.06h-55.12c1.16,3,3.09,5.29,5.8,6.89c2.71,1.6,6.09,2.39,10.15,2.39c3.48,0,6.4-0.44,8.78-1.31
		c2.37-0.87,4.95-2.37,7.76-4.5l17.12,17.26c-7.74,8.51-19.29,12.76-34.67,12.76c-9.57,0-17.99-1.76-25.24-5.29
		c-7.25-3.53-12.86-8.44-16.83-14.72c-3.97-6.28-5.95-13.34-5.95-21.18c0-7.93,1.96-15.01,5.87-21.25
		c3.92-6.24,9.28-11.1,16.1-14.58c6.82-3.48,14.48-5.22,22.99-5.22c8.03,0,15.35,1.6,21.97,4.79c6.62,3.19,11.89,7.88,15.81,14.07
		c3.92,6.19,5.88,13.59,5.88,22.19C1353.08,433.85,1352.94,436.41,1352.65,441.06z M1301.3,417.41c-2.23,1.84-3.68,4.45-4.35,7.83
		h25.53c-0.68-3.29-2.13-5.87-4.35-7.76c-2.23-1.89-5.03-2.83-8.41-2.83C1306.33,414.66,1303.53,415.58,1301.3,417.41z"/>
	<path class="st3" d="M1450.12,393.77v79.34h-31.18v-7.54c-2.9,3-6.29,5.25-10.15,6.74c-3.87,1.5-7.98,2.25-12.33,2.25
		c-10.06,0-18.13-3.07-24.22-9.21c-6.09-6.14-9.14-15.4-9.14-27.78v-43.8h32.78v38.15c0,5.42,0.87,9.28,2.61,11.6
		c1.74,2.32,4.3,3.48,7.69,3.48c3.19,0,5.85-1.28,7.98-3.84c2.12-2.56,3.19-6.6,3.19-12.11v-37.28H1450.12z"/>
	<path class="st3" d="M1551.65,393.77v107.48h-32.78v-33.51c-4.64,4.55-11.36,6.82-20.16,6.82c-6.96,0-13.37-1.67-19.22-5
		c-5.85-3.34-10.49-8.12-13.92-14.36c-3.43-6.24-5.15-13.46-5.15-21.68c0-8.22,1.72-15.47,5.15-21.76
		c3.43-6.28,8.07-11.1,13.92-14.43c5.85-3.34,12.26-5,19.22-5c9.77,0,17.02,2.66,21.76,7.98v-6.53H1551.65z M1515.82,444.97
		c2.42-2.71,3.63-6.53,3.63-11.46c0-4.93-1.21-8.78-3.63-11.53c-2.42-2.76-5.51-4.13-9.28-4.13c-3.77,0-6.87,1.38-9.28,4.13
		c-2.42,2.76-3.63,6.6-3.63,11.53c0,4.93,1.21,8.75,3.63,11.46c2.42,2.71,5.51,4.06,9.28,4.06
		C1510.31,449.03,1513.41,447.68,1515.82,444.97z"/>
	<path class="st3" d="M1652.89,393.77v79.34h-31.18v-7.54c-2.9,3-6.29,5.25-10.15,6.74c-3.87,1.5-7.98,2.25-12.33,2.25
		c-10.06,0-18.13-3.07-24.22-9.21c-6.09-6.14-9.14-15.4-9.14-27.78v-43.8h32.78v38.15c0,5.42,0.87,9.28,2.61,11.6
		c1.74,2.32,4.3,3.48,7.69,3.48c3.19,0,5.85-1.28,7.98-3.84c2.12-2.56,3.19-6.6,3.19-12.11v-37.28H1652.89z"/>
	<path class="st3" d="M1751.38,441.06h-55.12c1.16,3,3.09,5.29,5.8,6.89c2.71,1.6,6.09,2.39,10.15,2.39c3.48,0,6.4-0.44,8.78-1.31
		c2.37-0.87,4.95-2.37,7.76-4.5l17.12,17.26c-7.74,8.51-19.29,12.76-34.67,12.76c-9.57,0-17.99-1.76-25.24-5.29
		c-7.25-3.53-12.86-8.44-16.83-14.72c-3.97-6.28-5.95-13.34-5.95-21.18c0-7.93,1.96-15.01,5.87-21.25
		c3.92-6.24,9.28-11.1,16.1-14.58c6.82-3.48,14.48-5.22,22.99-5.22c8.03,0,15.35,1.6,21.97,4.79c6.62,3.19,11.89,7.88,15.81,14.07
		c3.92,6.19,5.88,13.59,5.88,22.19C1751.81,433.85,1751.67,436.41,1751.38,441.06z M1711.49,361.86h31.18l-28.57,23.21h-21.76
		L1711.49,361.86z M1700.03,417.41c-2.23,1.84-3.68,4.45-4.35,7.83h25.53c-0.68-3.29-2.13-5.87-4.35-7.76
		c-2.23-1.89-5.03-2.83-8.41-2.83C1705.06,414.66,1702.25,415.58,1700.03,417.41z"/>
	<path class="st3" d="M1840.8,401.17c5.95,5.9,8.92,14.79,8.92,26.69v45.25h-32.78v-39.6c0-9.09-3.24-13.63-9.72-13.63
		c-3.68,0-6.65,1.28-8.92,3.84c-2.27,2.56-3.41,6.6-3.41,12.11v37.28h-32.78v-79.34h31.18v7.83c3.09-3.09,6.67-5.41,10.73-6.96
		c4.06-1.55,8.46-2.32,13.2-2.32C1826.99,392.32,1834.85,395.27,1840.8,401.17z"/>
	<path class="st3" d="M1981.85,376.22c6.96,3.1,12.33,7.54,16.1,13.34c3.77,5.8,5.66,12.57,5.66,20.31c0,7.74-1.89,14.5-5.66,20.31
		c-3.77,5.8-9.14,10.25-16.1,13.34c-6.96,3.1-15.13,4.64-24.51,4.64h-14.65v24.95h-34.23V371.58h48.88
		C1966.72,371.58,1974.89,373.13,1981.85,376.22z M1965.61,418.65c2.32-2.08,3.48-5,3.48-8.78s-1.16-6.69-3.48-8.78
		c-2.32-2.08-5.8-3.12-10.44-3.12h-12.47v23.79h12.47C1959.8,421.76,1963.28,420.73,1965.61,418.65z"/>
	<path class="st3" d="M2080.48,401.68c7.35,6.24,11.02,15.83,11.02,28.79v42.64h-30.46v-10.44c-3.77,7.93-11.27,11.89-22.48,11.89
		c-6.29,0-11.63-1.09-16.03-3.26c-4.4-2.18-7.74-5.12-10.01-8.85c-2.27-3.72-3.41-7.91-3.41-12.55c0-7.83,3-13.78,8.99-17.84
		c5.99-4.06,15.08-6.09,27.27-6.09h13.2c-1.07-6.19-6.04-9.28-14.94-9.28c-3.58,0-7.2,0.56-10.88,1.67
		c-3.68,1.11-6.82,2.64-9.43,4.57l-10.44-21.61c4.54-2.8,10.03-5,16.46-6.6c6.43-1.6,12.84-2.39,19.22-2.39
		C2062.5,392.32,2073.13,395.44,2080.48,401.68z M2054.66,452.95c1.84-1.26,3.19-3.14,4.06-5.66v-5.51h-8.12
		c-6.67,0-10.01,2.23-10.01,6.67c0,1.84,0.7,3.36,2.1,4.57c1.4,1.21,3.31,1.81,5.73,1.81
		C2050.75,454.84,2052.82,454.21,2054.66,452.95z"/>
	<path class="st3" d="M2164.17,470.36c-4.93,2.8-11.65,4.21-20.16,4.21c-11.12,0-19.68-2.68-25.67-8.05
		c-6-5.37-8.99-13.42-8.99-24.15v-20.31h-10.88v-23.93h10.88v-22.19h32.78v22.19h16.25v23.93h-16.25v20.02
		c0,2.42,0.63,4.3,1.89,5.66c1.26,1.35,2.9,2.03,4.93,2.03c2.8,0,5.27-0.73,7.4-2.18L2164.17,470.36z"/>
	<path class="st3" d="M2239.88,401.68c7.35,6.24,11.02,15.83,11.02,28.79v42.64h-30.46v-10.44c-3.77,7.93-11.27,11.89-22.48,11.89
		c-6.29,0-11.63-1.09-16.03-3.26c-4.4-2.18-7.74-5.12-10.01-8.85c-2.27-3.72-3.41-7.91-3.41-12.55c0-7.83,3-13.78,8.99-17.84
		c5.99-4.06,15.08-6.09,27.27-6.09h13.2c-1.07-6.19-6.04-9.28-14.94-9.28c-3.58,0-7.2,0.56-10.88,1.67
		c-3.68,1.11-6.82,2.64-9.43,4.57l-10.44-21.61c4.54-2.8,10.03-5,16.46-6.6c6.43-1.6,12.84-2.39,19.22-2.39
		C2221.9,392.32,2232.53,395.44,2239.88,401.68z M2214.06,452.95c1.84-1.26,3.19-3.14,4.06-5.66v-5.51H2210
		c-6.67,0-10.01,2.23-10.01,6.67c0,1.84,0.7,3.36,2.1,4.57c1.4,1.21,3.31,1.81,5.73,1.81
		C2210.15,454.84,2212.23,454.21,2214.06,452.95z"/>
	<path class="st3" d="M2355.19,393.77v63.53c0,15.08-4.18,26.42-12.55,34.01c-8.36,7.59-20.28,11.39-35.75,11.39
		c-7.93,0-15.33-0.85-22.19-2.54c-6.87-1.69-12.72-4.13-17.55-7.32l11.02-22.34c3.09,2.32,7.01,4.21,11.75,5.66
		c4.74,1.45,9.28,2.18,13.63,2.18c6.57,0,11.36-1.4,14.36-4.21c3-2.8,4.5-6.91,4.5-12.33v-1.45c-4.93,5.61-12.23,8.41-21.9,8.41
		c-6.77,0-13.08-1.57-18.93-4.71c-5.85-3.14-10.52-7.64-14-13.49c-3.48-5.85-5.22-12.55-5.22-20.09c0-7.54,1.74-14.21,5.22-20.02
		s8.15-10.27,14-13.42c5.85-3.14,12.16-4.71,18.93-4.71c10.83,0,18.66,3.48,23.5,10.44v-8.99H2355.19z M2318.86,439.68
		c2.56-2.37,3.84-5.44,3.84-9.21c0-3.77-1.28-6.82-3.84-9.14c-2.56-2.32-5.78-3.48-9.65-3.48c-3.97,0-7.23,1.16-9.79,3.48
		c-2.56,2.32-3.84,5.37-3.84,9.14c0,3.77,1.3,6.84,3.92,9.21c2.61,2.37,5.85,3.55,9.72,3.55
		C2313.08,443.23,2316.3,442.05,2318.86,439.68z"/>
	<path class="st3" d="M2387.9,469.27c-7.01-3.53-12.5-8.41-16.46-14.65c-3.97-6.24-5.95-13.32-5.95-21.25
		c0-7.93,1.98-15.01,5.95-21.25c3.96-6.24,9.45-11.1,16.46-14.58c7.01-3.48,14.92-5.22,23.71-5.22c8.9,0,16.85,1.74,23.86,5.22
		c7.01,3.48,12.47,8.34,16.39,14.58c3.92,6.24,5.88,13.32,5.88,21.25c0,7.93-1.96,15.01-5.88,21.25
		c-3.92,6.24-9.38,11.12-16.39,14.65c-7.01,3.53-14.96,5.29-23.86,5.29C2402.81,474.56,2394.91,472.8,2387.9,469.27z M2420.9,444.9
		c2.42-2.76,3.63-6.6,3.63-11.53c0-4.93-1.21-8.75-3.63-11.46c-2.42-2.71-5.51-4.06-9.28-4.06c-3.77,0-6.87,1.36-9.28,4.06
		c-2.42,2.71-3.63,6.53-3.63,11.46c0,4.93,1.21,8.77,3.63,11.53c2.42,2.76,5.51,4.13,9.28,4.13
		C2415.39,449.03,2418.48,447.66,2420.9,444.9z"/>
	<path class="st3" d="M2546.72,401.17c5.95,5.9,8.92,14.79,8.92,26.69v45.25h-32.78v-39.6c0-9.09-3.24-13.63-9.72-13.63
		c-3.68,0-6.65,1.28-8.92,3.84c-2.27,2.56-3.41,6.6-3.41,12.11v37.28h-32.78v-79.34h31.18v7.83c3.09-3.09,6.67-5.41,10.73-6.96
		c4.06-1.55,8.46-2.32,13.2-2.32C2532.92,392.32,2540.78,395.27,2546.72,401.17z"/>
	<path class="st3" d="M2571.96,382.68c-3.63-3.14-5.44-7.13-5.44-11.97c0-4.83,1.81-8.82,5.44-11.97c3.63-3.14,8.39-4.71,14.29-4.71
		c5.99,0,10.78,1.5,14.36,4.5c3.58,3,5.37,6.87,5.37,11.6c0,5.03-1.79,9.16-5.37,12.4c-3.58,3.24-8.37,4.86-14.36,4.86
		C2580.35,387.39,2575.59,385.82,2571.96,382.68z M2569.86,393.77h32.78v79.34h-32.78V393.77z"/>
	<path class="st3" d="M2684.59,401.68c7.35,6.24,11.02,15.83,11.02,28.79v42.64h-30.46v-10.44c-3.77,7.93-11.27,11.89-22.48,11.89
		c-6.29,0-11.63-1.09-16.03-3.26c-4.4-2.18-7.74-5.12-10.01-8.85c-2.27-3.72-3.41-7.91-3.41-12.55c0-7.83,3-13.78,8.99-17.84
		c5.99-4.06,15.08-6.09,27.27-6.09h13.2c-1.07-6.19-6.04-9.28-14.94-9.28c-3.58,0-7.2,0.56-10.88,1.67
		c-3.68,1.11-6.82,2.64-9.43,4.57L2617,401.31c4.54-2.8,10.03-5,16.46-6.6c6.43-1.6,12.84-2.39,19.22-2.39
		C2666.6,392.32,2677.24,395.44,2684.59,401.68z M2658.77,452.95c1.84-1.26,3.19-3.14,4.06-5.66v-5.51h-8.12
		c-6.67,0-10.01,2.23-10.01,6.67c0,1.84,0.7,3.36,2.1,4.57c1.4,1.21,3.31,1.81,5.73,1.81
		C2654.85,454.84,2656.93,454.21,2658.77,452.95z"/>
</g>
<line class="st5" x1="1144.8" y1="602.17" x2="2702.57" y2="602.17"/>
<line class="st5" x1="1144.8" y1="98.74" x2="2706.17" y2="98.74"/>
</svg>
